<?xml version="1.0" encoding="utf-8"?>
<!-- Generator: Adobe Illustrator 15.1.0, SVG Export Plug-In . SVG Version: 6.00 Build 0)  -->
<!DOCTYPE svg PUBLIC "-//W3C//DTD SVG 1.1//EN" "http://www.w3.org/Graphics/SVG/1.1/DTD/svg11.dtd">
<svg version="1.1" xmlns="http://www.w3.org/2000/svg" xmlns:xlink="http://www.w3.org/1999/xlink" x="0px" y="0px"
	 width="744.095px" height="1052.361px" viewBox="0 0 744.095 1052.361" enable-background="new 0 0 744.095 1052.361"
	 xml:space="preserve">
<g id="Back" display="none">
	
		<rect id="Background" x="0" y="0" display="inline" fill="#FFE700" stroke="#FFE700" stroke-miterlimit="10" width="744.095" height="1052.361"/>
</g>
<g id="svg4159" xmlns:inkscape="http://www.inkscape.org/namespaces/inkscape" xmlns:dc="http://purl.org/dc/elements/1.1/" xmlns:svg="http://www.w3.org/2000/svg" xmlns:rdf="http://www.w3.org/1999/02/22-rdf-syntax-ns#" inkscape:version="0.48.0 r9654" xmlns:cc="http://creativecommons.org/ns#" sodipodi:docname="TkkrLabV5.svg" xmlns:sodipodi="http://sodipodi.sourceforge.net/DTD/sodipodi-0.dtd">
	<g id="Layer_4">
		<g id="Back_x5F_logoOnly">
			<rect x="24.047" y="136.18" fill="#FFE700" stroke="#000000" width="109.5" height="26.333"/>
			<polyline fill="#FFE700" stroke="#000000" points="24.047,127.347 133.547,127.514 78.797,35.514 			"/>
		</g>
	</g>
	<path id="OutLine_x5F_cut" display="none" fill="none" stroke="#E6007E" stroke-miterlimit="10" d="M139.121,123.535l-55.425-93.37
		c-1.355-2.123-3.176-3.123-5.684-3.123c-2.983,0-4.316,0.929-5.677,3.253c-0.678,1.162-53.686,90.555-54.238,91.802
		c-0.846,1.438-1.133,3.093-0.906,4.537v39.57c0.001,1.418,1.155,2.568,2.579,2.57h117.686c1.425,0.004,2.584-1.145,2.588-2.565
		c0-0.001,0-0.003,0-0.004v-38.574c0,0,0-0.874,0-1.298C140.045,125.144,139.121,123.535,139.121,123.535z"/>
	<path id="Back_x5F_full" display="none" fill="#FFE700" d="M139.121,123.535l-55.425-93.37c-1.355-2.123-3.176-3.123-5.684-3.123
		c-2.983,0-4.316,0.929-5.677,3.253c-0.678,1.162-53.686,90.555-54.238,91.802c-0.846,1.438-1.133,3.093-0.906,4.537v39.57
		c0.001,1.418,1.155,2.568,2.579,2.57h117.686c1.425,0.004,2.584-1.145,2.588-2.565c0-0.001,0-0.003,0-0.004v-38.574
		c0,0,0-0.874,0-1.298C140.045,125.144,139.121,123.535,139.121,123.535z"/>
	<g>
		<g id="g4180_18_" transform="translate(71.487516,220.12427)">
			<g id="g4967_9_">
				<path id="path2999_9_" inkscape:connector-curvature="0" d="M-36.378-76.73v12.307c0,0.627,0.275,0.98,0.983,0.98
					c0.708,0,0.983-0.353,0.983-0.98V-76.73h1.908v0.706c0,0.627,0.275,0.98,0.983,0.98c0.708,0,0.983-0.353,0.983-0.98v-2.666
					h-9.715v2.666c0,0.627,0.276,0.98,0.984,0.98s0.983-0.353,0.983-0.98v-0.706H-36.378"/>
				<path id="path3001_9_" inkscape:connector-curvature="0" d="M-23.955-69.616v-6.977c0-0.647-0.137-1.294-0.944-1.294
					c-0.806,0-0.944,0.647-0.944,1.294v11.856c0,0.647,0.138,1.293,0.944,1.293c0.807,0,0.944-0.646,0.944-1.293v-2.391l0.787-0.706
					l4.739,3.938c0.275,0.216,0.511,0.451,0.885,0.451c0.531,0,0.944-0.432,0.944-0.96c0-0.491-0.315-0.706-0.669-1l-4.444-3.684
					l3.657-3.019c0.334-0.274,0.629-0.489,0.629-0.94c0-0.529-0.413-0.961-0.943-0.961c-0.453,0-0.924,0.471-1.259,0.765
					L-23.955-69.616"/>
				<path id="path3003_9_" inkscape:connector-curvature="0" d="M-9.783-69.616v-6.977c0-0.647-0.138-1.294-0.943-1.294
					c-0.807,0-0.945,0.647-0.945,1.294v11.856c0,0.647,0.138,1.293,0.945,1.293c0.806,0,0.943-0.646,0.943-1.293v-2.391l0.787-0.706
					l4.739,3.938c0.275,0.216,0.511,0.451,0.885,0.451c0.531,0,0.944-0.432,0.944-0.96c0-0.491-0.314-0.706-0.669-1l-4.444-3.684
					l3.658-3.019c0.335-0.274,0.63-0.489,0.63-0.94c0-0.529-0.413-0.961-0.944-0.961c-0.452,0-0.924,0.471-1.259,0.765
					L-9.783-69.616"/>
				<path id="path3005_9_" inkscape:connector-curvature="0" d="M2.502-64.736c0,0.647,0.137,1.293,0.944,1.293
					c0.806,0,0.943-0.646,0.943-1.293v-4.762l2.636-2.175c0.334-0.274,0.59-0.451,0.944-0.451h0.55c0.453,0,0.905,0,1.141,0.333
					c0.196,0.274,0.196,0.51,0.196,0.823c0,0.607,0.275,1.156,0.963,1.156c0.807,0,0.925-0.667,0.925-1.313
					c0-0.862-0.217-1.509-0.846-2.136c-0.511-0.51-1.121-0.745-1.849-0.745H7.537c-0.59,0-1.141,0.373-1.672,0.804L4.39-71.988
					v-0.764c0-0.627-0.196-1.255-0.943-1.255c-0.866,0-0.944,0.706-0.944,1.392V-64.736"/>
				<path id="path3007_9_" inkscape:connector-curvature="0" d="M18.405-65.403V-77.71c0-0.627-0.275-0.98-0.983-0.98
					s-0.983,0.353-0.983,0.98v14.267h8.731c0.511,0,0.983-0.274,0.983-0.98c0-0.706-0.472-0.98-0.983-0.98H18.405"/>
				<path id="path3009_9_" inkscape:connector-curvature="0" d="M36.354-72.125c1.357,0,1.672,0.235,1.672,1.646v0.431h-4.051
					c-0.826,0-1.553,0.138-2.202,0.706c-0.708,0.627-0.925,1.195-0.925,2.097v0.823c0,0.98,0.197,1.666,0.983,2.313
					c0.688,0.568,1.298,0.666,2.144,0.666h1.809c0.61,0,0.629,0,1.16-0.274l1.298-0.667c-0.02,0.529,0.472,0.941,0.963,0.941
					c0.629,0,0.905-0.549,0.885-1.098l-0.196-6.388c-0.02-0.941-0.118-1.51-0.846-2.235c-0.748-0.744-1.456-0.842-2.439-0.842
					h-2.595c-0.629,0-1.298,0.138-1.298,0.941c0,0.823,0.748,0.94,1.298,0.94H36.354 M36.787-68.166
					c1.042,0,1.337,0.314,1.337,1.353v0.412l-2.084,1.077h-2.084c-0.452,0-1.219-0.137-1.219-0.764v-1.254
					c0-0.687,0.747-0.823,1.259-0.823H36.787"/>
				<path id="path3011_9_" inkscape:connector-curvature="0" d="M46.908-76.593c0-0.647-0.138-1.294-0.943-1.294
					c-0.806,0-0.944,0.647-0.944,1.294v11.837c0,0.647,0.138,1.313,0.944,1.313c0.747,0,0.943-0.646,0.943-1.254v-0.117l0.433,0.412
					c0.53,0.489,1.062,0.96,1.828,0.96h1.947c0.472,0,1.023-0.294,1.475-0.666l0.649-0.549c0.748-0.647,1.022-1.175,1.022-2.175
					v-3.783c0-0.999-0.274-1.529-1.022-2.175l-0.649-0.548c-0.471-0.392-0.904-0.667-1.396-0.667h-2.084
					c-0.865,0-1.24,0.412-1.869,1.039l-0.334,0.333V-76.593 M46.908-69.616c0-0.568,0.256-0.862,0.571-1.117l1.219-1.058
					c0.216-0.196,0.531-0.333,0.787-0.333h1.318c0.196,0,0.335,0.059,0.452,0.157l0.866,0.666c0.157,0.118,0.255,0.412,0.255,0.784
					v3.332c0,0.373-0.02,0.823-0.236,0.999l-0.826,0.686c-0.138,0.118-0.315,0.176-0.59,0.176h-1.435
					c-0.197,0-0.492-0.274-0.728-0.47l-1.082-0.922c-0.492-0.411-0.571-0.646-0.571-1.254V-69.616"/>
				<path id="rect3011_18_" inkscape:connector-curvature="0" d="M-48.364-87.008c-1.294,0-2.344,1.046-2.345,2.336v27.546
					c0.001,1.29,1.051,2.335,2.345,2.336H62.343c1.296,0.003,2.35-1.041,2.353-2.332c0-0.002,0-0.004,0-0.005v-27.546
					c-0.001-1.292-1.052-2.338-2.348-2.337c-0.001,0-0.003,0-0.005,0H-48.364z M-46.02-82.335H59.999v22.873H-46.02V-82.335z"/>
			</g>
			
				<path id="path3177_9_" inkscape:connector-curvature="0" sodipodi:nodetypes="csssszzzcccsssscacscssssccsscsssccsssccsscssccssccscccsssssccccssssssscccccsscsssssscccssssszcsaaszczzzsssssssscsssssccc" d="
				M-49.886-96.235c0.504-1.134,51.64-89.249,52.154-90.129c1.03-1.761,2.04-2.465,4.3-2.465c1.9,0,3.279,0.758,4.306,2.366
				c0.458,0.717,12.461,21.37,26.674,45.894c0,0,25.325,42.595,26.309,44.652c0.983,2.057,1.423,4.983,0.121,6.099
				c-1.303,1.116-2.686,1.063-3.333,1.098c-0.648,0.034-54.077-0.063-54.077-0.063h-53.61
				C-50.618-88.696-51.76-93.045-49.886-96.235L-49.886-96.235z M57.398-95.366c-0.283-0.487-11.801-20.369-25.594-44.183
				C18.01-163.363,6.657-182.847,6.575-182.847c-0.11,0-43.714,75.043-50.427,86.785l-0.902,1.579c0,0,34.222,0,51.334,0
				c17.11,0,51.333,0,51.333,0L57.398-95.366z M8.001-100.23c-0.356-0.358-0.426-2.879-0.109-3.976
				c0.098-0.338,1.085-1.663,2.194-2.942c1.588-1.832,3.03-3.905,3.03-4.358c0-0.029-0.369-0.18-0.819-0.337
				c-0.468-0.162-1.065-0.699-1.391-1.25c-1.357-1.422-0.999-3.372-1.434-5.043c-0.081,0.225-0.495,1.117,0.135,3.487
				c0.076,0.286-0.583,0.128-0.631,0.727l-0.088,1.087l-3.41,0.068c-1.875,0.038-3.681,0.208-4.011,0.379
				c-0.333,0.172-1.205,0.553-1.306,1.021c-0.1,0.464,0.146,0.679,0.573,2.149c-1.605,0.369-2.732,0.009-4.14-0.576
				c-0.093-0.562,0.19-1.243,0.295-1.94c0.15-1,0.457-1.304,1.387-2.23c0,0,0.838-0.558,1.36-0.752
				c0.76-0.283,2.248-0.253,2.248-0.253l2.428,0.172l0.128-2.217c0.107-1.829,0.238-2.331,0.754-2.879l0.625-0.663l-0.648-0.126
				c-4.679-0.909-4.753-0.937-6.65-2.501c-0.307-0.253-0.715-0.504-1.378-1.068c0.789-0.581,0.806-0.575,1.432-1.443
				c-1.652,1.27-2.432,1.307-3.262,1.241c-1.015-0.08-2.03-0.299-2.257-0.488c-0.227-0.187-0.463-0.292-0.526-0.229
				c-0.216,0.215-0.769,1.753-0.405,3.639c0.265,1.21,0.572,2.638,0.788,3.18c0.691,1.74,1.546,1.211,2.638,2.042
				c-0.138,1.822-0.797,2.444-2.118,2.933c-1.167-0.622-2.691-2.591-2.691-2.591s-0.572-1.166-0.844-1.656
				c-0.813-1.467-0.652-1.218-0.634-5.405c0.015-3.709,0.083-4.328,0.567-5.166c0.573-0.992,1.709-1.401,2.369-0.855
				c0.341,0.282,1.684,0.445,2.981,0.36c0.415-0.027-0.201,0.021,0.81-0.022c-0.098-0.505,0.174-1.065,0.295-1.463
				c-0.824-0.219-0.946-0.361-1.195-0.543c-1.042-0.917-1.79-2.167-2.597-3.365c-0.365-0.552-0.206-1.48-2.196-0.021
				c-1.711,1.254-1.034,1.283-0.96,1.799c0.156,1.079-2.027,2.788-3.058,2.394c-0.328-0.126-0.332-0.401-0.022-1.87
				c0.199-0.948,0.482-2.038,0.628-2.422c0.249-0.65,2.39-2.63,3.316-3.064c0.225-0.106,0.715-0.37,1.091-0.586
				c1.064-0.613,1.859-0.495,2.391,0.356c0.907,1.15,2.054,2.532,4.228,3.518c0.586-1.194,2.654-3.496,4.264-3.73
				c0.167,0,0.303-0.245,0.303-0.543c-0.082-0.568-0.181-0.848-0.341-1.258c-0.153-0.717-0.248-0.646-2.3-0.646
				c-1.152,0-2.515,0.151-3.028,0.336c-0.852,0.307-1.505-0.425-1.121-1.002c-0.373,0.078-0.977,0.123-1.192,0.123
				c-0.57,0-1.263-0.864-1.454-1.813c-0.147-0.733-0.029-0.938,1.048-1.817c0.667-0.545,1.302-0.991,1.411-0.991
				c0.108,0,0.906-0.544,1.772-1.208c0.867-0.664,1.978-1.182,2.367-1.405c1.198-0.684,3.395-1.753,3.395-1.753
				s0.231-1.251,1.475-2.327c0.607,0.806,0.891,1.304,1.14,2.488c1.289,0.574,0.875,0.446,1.724,1.066
				c1.634,1.195,2.289,2.202,2.855,4.393c0.475,1.838,0.287,4.457-0.506,7.038c-0.955,3.105-0.289,6.461,1.555,7.841
				c1.237,0.925,3.467,2.004,4.584,2.218c1.468,0.281,2.765,0.894,3.738,2.167c0.973,1.273,0.793,1.093,1.042,2.119
				c0.471,0.113,2.643-3.551-2.206-5.425c-2.191-0.847-4.041-3.023-4.644-5.287c-0.306-1.15,0.237-2.407,0.712-3.499
				c0.76-1.743,1.791-2.904,3.321-4.645c0.786-0.895,2.122-2.092,1.588-3.197c-0.534-1.106-2.583-1.384-3.72,1.263
				c-0.22-1.768,0.902-3.311,2.026-3.634c1.124-0.323,2.157-0.341,3.292,0.952c1.135,1.292,1.509,3.018-0.214,5.667
				c-1.723,2.649-3.095,4.633-2.912,5.436c0.239,1.047,0.642,1.468,2.116,2.211c2.369,1.193,4.538,4.249,4.981,7.016
				c0.101,0.629,0.044,1.814-0.127,2.633c-0.25,1.197-0.528,1.686-1.415,2.483c-0.722,0.651-1.282,0.948-1.621,0.858
				c-0.348-0.09-0.518,0.007-0.518,0.298c0,1.079-1.184,2.785-2.698,3.89l-1.578,1.152l0.686,1.044
				c0.377,0.574,0.787,1.044,0.911,1.044c0.717,0-0.01,1.265-1.588,2.764c-0.997,0.947-2.693,2.823-3.77,4.169
				c-1.847,2.309-2.063,1.788-2.358,2.839c-0.167,0.595,0.579,1.208,0.782,2.162C10.415-100.177,8.81-100.243,8.001-100.23z"/>
		</g>
	</g>
</g>
</svg>
